<svg width="72" height="72" viewBox="0 0 72 72" fill="none" xmlns="http://www.w3.org/2000/svg">
  <g id="download-core-small">

    <path d="M36 70.2008C54.8882 70.2008 70.2001 54.8889 70.2001 36.0008C70.2001 17.1126 54.8882 1.80078 36 1.80078C17.1119 1.80078 1.80005 17.1126 1.80005 36.0008C1.80005 54.8889 17.1119 70.2008 36 70.2008Z" fill="url(#paint0_radial)"></path>

    <path opacity="0.4" d="M64.7658 36.195C65.5206 51.5916 53.7908 63.5824 38.5668 62.977C23.3428 62.3722 10.3893 49.4 9.63446 34.0034C8.87954 18.6068 20.6091 6.61594 35.8331 7.22116C51.0571 7.82638 64.0104 20.7984 64.7658 36.195Z" fill="url(#paint1_radial)"></path>

    <path d="M62.3657 37.9958C63.1205 53.3924 51.3908 65.3832 36.1668 64.7778C20.9428 64.173 7.9893 51.2008 7.23444 35.8041C6.47952 20.4075 18.2091 8.41672 33.4331 9.02194C48.6571 9.62716 61.6103 22.5992 62.3657 37.9958Z" fill="url(#paint2_radial)"></path>

    <path opacity="0.5" d="M64.7658 36.195C65.5206 51.5916 53.7908 63.5824 38.5668 62.977C23.3428 62.3722 10.3893 49.4 9.63446 34.0034C8.87954 18.6068 20.6091 6.61594 35.8331 7.22116C51.0571 7.82638 64.0104 20.7984 64.7658 36.195Z" fill="url(#paint3_radial)"></path>

    <path opacity="0.6" d="M36.9 60.6C48.6636 60.6 58.2 51.0637 58.2 39.3C58.2 27.5363 48.6636 18 36.9 18C25.1363 18 15.6 27.5363 15.6 39.3C15.6 51.0637 25.1363 60.6 36.9 60.6Z" fill="url(#paint4_radial)"></path>

    <path fill-rule="evenodd" clip-rule="evenodd" d="M39.0849 42.2727L46.3387 35.76L48.8945 38.5142L38.9118 47.477L37.8466 48.4333L36.6071 47.477L24.9899 38.5142L27.0434 35.76L35.4849 42.2727L33.6 21.6016H37.2L39.0849 42.2727Z" fill="white"></path>

  </g>

  <defs>

    <radialGradient id="paint0_radial" cx="0" cy="0" r="1" gradientUnits="userSpaceOnUse" gradientTransform="translate(36 36) rotate(90) scale(34)">
      <stop stop-color="#FFB86C"></stop>
      <stop offset="0.5" stop-color="#E50914"></stop>
      <stop offset="1" stop-color="#6A0DAD"></stop>
    </radialGradient>

    <radialGradient id="paint1_radial" cx="0" cy="0" r="1" gradientUnits="userSpaceOnUse" gradientTransform="translate(36 36) rotate(90) scale(30)">
      <stop stop-color="#FFFFFF"></stop>
      <stop offset="1" stop-color="#FFFFFF" stop-opacity="0"></stop>
    </radialGradient>

    <radialGradient id="paint2_radial" cx="0" cy="0" r="1" gradientUnits="userSpaceOnUse" gradientTransform="translate(36 36) rotate(90) scale(32)">
      <stop stop-color="#FF4D6D"></stop>
      <stop offset="1" stop-color="#5A189A"></stop>
    </radialGradient>

    <radialGradient id="paint3_radial" cx="0" cy="0" r="1" gradientUnits="userSpaceOnUse" gradientTransform="translate(36 36) rotate(90) scale(32)">
      <stop stop-color="#FFFFFF"></stop>
      <stop offset="1" stop-color="#FFFFFF" stop-opacity="0"></stop>
    </radialGradient>

    <radialGradient id="paint4_radial" cx="0" cy="0" r="1" gradientUnits="userSpaceOnUse" gradientTransform="translate(36.9 39.3) rotate(90) scale(21.3)">
      <stop stop-color="#000000" stop-opacity="0"></stop>
      <stop offset="1" stop-color="#000000"></stop>
    </radialGradient>

  </defs>
</svg>